<svg width="202" height="34" viewBox="0 0 202 34" fill="none" xmlns="http://www.w3.org/2000/svg">
<g clip-path="url(#clip0_2_55)">
<path d="M34 30.6C34 32.4778 32.4778 34 30.6 34L3.4 34C1.52223 34 -1.6416e-07 32.4778 0 30.6L2.3779e-06 3.4C2.54206e-06 1.52223 1.52223 -1.6416e-07 3.4 0L30.6 2.3779e-06C32.4778 2.54206e-06 34 1.52223 34 3.4L34 30.6Z" fill="#6028FF"/>
<path d="M31.28 7.82C31.28 9.32221 30.0622 10.54 28.56 10.54L14.96 10.54C13.4578 10.54 12.24 9.32221 12.24 7.82V5.44C12.24 3.93779 13.4578 2.72 14.96 2.72L28.56 2.72C30.0622 2.72 31.28 3.93779 31.28 5.44V7.82Z" fill="white"/>
<path d="M31.28 18.36C31.28 19.8622 30.0622 21.08 28.56 21.08L14.96 21.08C13.4578 21.08 12.24 19.8622 12.24 18.36V15.98C12.24 14.4778 13.4578 13.26 14.96 13.26L28.56 13.26C30.0622 13.26 31.28 14.4778 31.28 15.98V18.36Z" fill="white"/>
<path d="M31.28 28.56C31.28 30.0622 30.0622 31.28 28.56 31.28L14.96 31.28C13.4578 31.28 12.24 30.0622 12.24 28.56V26.52C12.24 25.0178 13.4578 23.8 14.96 23.8L28.56 23.8C30.0622 23.8 31.28 25.0178 31.28 26.52V28.56Z" fill="white"/>
<path d="M9.52 28.56C9.52 30.0622 8.30221 31.28 6.8 31.28H5.44C3.93778 31.28 2.72 30.0622 2.72 28.56L2.72 5.44C2.72 3.93778 3.93779 2.72 5.44 2.72L6.8 2.72C8.30222 2.72 9.52 3.93779 9.52 5.44L9.52 28.56Z" fill="white"/>
<path d="M45.968 25V7.48H49.808V25H45.968ZM49.328 25V21.736H56.984V25H49.328ZM49.328 17.728V14.464H56.432V17.728H49.328ZM49.328 10.744V7.48H56.816V10.744H49.328ZM60.002 25V11.848H63.05V17.512H62.834C62.834 16.168 63.002 15.048 63.338 14.152C63.674 13.256 64.178 12.584 64.85 12.136C65.522 11.672 66.346 11.44 67.322 11.44H67.49C68.482 11.44 69.306 11.672 69.962 12.136C70.634 12.584 71.138 13.256 71.474 14.152C71.826 15.048 72.002 16.168 72.002 17.512H71.066C71.066 16.168 71.234 15.048 71.57 14.152C71.922 13.256 72.434 12.584 73.106 12.136C73.778 11.672 74.602 11.44 75.578 11.44H75.746C76.738 11.44 77.57 11.672 78.242 12.136C78.93 12.584 79.45 13.256 79.802 14.152C80.154 15.048 80.33 16.168 80.33 17.512V25H76.49V17.296C76.49 16.576 76.298 15.992 75.914 15.544C75.546 15.096 75.018 14.872 74.33 14.872C73.642 14.872 73.098 15.104 72.698 15.568C72.298 16.016 72.098 16.616 72.098 17.368V25H68.234V17.296C68.234 16.576 68.042 15.992 67.658 15.544C67.29 15.096 66.77 14.872 66.098 14.872C65.394 14.872 64.842 15.104 64.442 15.568C64.042 16.016 63.842 16.616 63.842 17.368V25H60.002ZM91.6916 25.432C90.6196 25.432 89.6756 25.208 88.8596 24.76C88.0436 24.296 87.4036 23.632 86.9396 22.768C86.4756 21.904 86.2276 20.848 86.1956 19.6H86.6516V25H83.6036V7.48H87.4436V16.384L86.5316 17.536C86.5796 16.208 86.8276 15.096 87.2756 14.2C87.7396 13.288 88.3716 12.608 89.1716 12.16C89.9716 11.696 90.8836 11.464 91.9076 11.464C92.8036 11.464 93.6116 11.632 94.3316 11.968C95.0676 12.288 95.6916 12.752 96.2036 13.36C96.7156 13.952 97.1076 14.656 97.3796 15.472C97.6676 16.288 97.8116 17.176 97.8116 18.136V18.664C97.8116 19.624 97.6676 20.512 97.3796 21.328C97.1076 22.144 96.6996 22.864 96.1556 23.488C95.6276 24.096 94.9876 24.576 94.2356 24.928C93.4836 25.264 92.6356 25.432 91.6916 25.432ZM90.6836 22.216C91.3396 22.216 91.9076 22.056 92.3876 21.736C92.8836 21.416 93.2676 20.968 93.5396 20.392C93.8116 19.8 93.9476 19.136 93.9476 18.4C93.9476 17.648 93.8116 16.992 93.5396 16.432C93.2676 15.872 92.8836 15.44 92.3876 15.136C91.9076 14.816 91.3396 14.656 90.6836 14.656C90.1076 14.656 89.5636 14.792 89.0516 15.064C88.5396 15.336 88.1236 15.728 87.8036 16.24C87.4996 16.736 87.3476 17.344 87.3476 18.064V18.952C87.3476 19.64 87.5076 20.232 87.8276 20.728C88.1636 21.208 88.5876 21.576 89.0996 21.832C89.6116 22.088 90.1396 22.216 90.6836 22.216ZM106.503 25.456C105.383 25.456 104.391 25.264 103.527 24.88C102.679 24.496 101.967 23.984 101.391 23.344C100.831 22.688 100.399 21.96 100.095 21.16C99.8066 20.344 99.6626 19.512 99.6626 18.664V18.184C99.6626 17.304 99.8066 16.464 100.095 15.664C100.399 14.848 100.831 14.12 101.391 13.48C101.951 12.84 102.647 12.336 103.479 11.968C104.327 11.584 105.287 11.392 106.359 11.392C107.767 11.392 108.951 11.712 109.911 12.352C110.887 12.976 111.631 13.8 112.143 14.824C112.655 15.832 112.911 16.936 112.911 18.136V19.432H101.271V17.248H110.583L109.335 18.256C109.335 17.472 109.223 16.8 108.999 16.24C108.775 15.68 108.439 15.256 107.991 14.968C107.559 14.664 107.015 14.512 106.359 14.512C105.687 14.512 105.119 14.664 104.655 14.968C104.191 15.272 103.839 15.72 103.599 16.312C103.359 16.888 103.239 17.6 103.239 18.448C103.239 19.232 103.351 19.92 103.575 20.512C103.799 21.088 104.151 21.536 104.631 21.856C105.111 22.176 105.735 22.336 106.503 22.336C107.207 22.336 107.783 22.2 108.231 21.928C108.679 21.656 108.983 21.32 109.143 20.92H112.671C112.479 21.8 112.103 22.584 111.543 23.272C110.983 23.96 110.279 24.496 109.431 24.88C108.583 25.264 107.607 25.456 106.503 25.456ZM120.879 25.432C119.951 25.432 119.103 25.264 118.335 24.928C117.583 24.592 116.927 24.128 116.367 23.536C115.807 22.928 115.375 22.216 115.071 21.4C114.783 20.584 114.639 19.704 114.639 18.76V18.208C114.639 17.264 114.775 16.384 115.047 15.568C115.335 14.752 115.743 14.04 116.271 13.432C116.815 12.808 117.463 12.328 118.215 11.992C118.967 11.64 119.807 11.464 120.735 11.464C121.791 11.464 122.703 11.696 123.471 12.16C124.239 12.608 124.839 13.28 125.271 14.176C125.703 15.056 125.943 16.144 125.991 17.44L124.983 16.504V7.48H128.847V25H125.799V19.552H126.327C126.279 20.8 126.015 21.864 125.535 22.744C125.071 23.624 124.439 24.296 123.639 24.76C122.839 25.208 121.919 25.432 120.879 25.432ZM121.839 22.216C122.431 22.216 122.967 22.088 123.447 21.832C123.943 21.56 124.335 21.168 124.623 20.656C124.927 20.144 125.079 19.528 125.079 18.808V17.92C125.079 17.216 124.927 16.624 124.623 16.144C124.319 15.664 123.919 15.296 123.423 15.04C122.927 14.784 122.391 14.656 121.815 14.656C121.175 14.656 120.599 14.824 120.087 15.16C119.591 15.48 119.199 15.928 118.911 16.504C118.623 17.064 118.479 17.72 118.479 18.472C118.479 19.24 118.623 19.904 118.911 20.464C119.199 21.024 119.599 21.456 120.111 21.76C120.623 22.064 121.199 22.216 121.839 22.216ZM137.754 25.432C136.826 25.432 135.978 25.264 135.21 24.928C134.458 24.592 133.802 24.128 133.242 23.536C132.682 22.928 132.25 22.216 131.946 21.4C131.658 20.584 131.514 19.704 131.514 18.76V18.208C131.514 17.264 131.65 16.384 131.922 15.568C132.21 14.752 132.618 14.04 133.146 13.432C133.69 12.808 134.338 12.328 135.09 11.992C135.842 11.64 136.682 11.464 137.61 11.464C138.666 11.464 139.578 11.696 140.346 12.16C141.114 12.608 141.714 13.28 142.146 14.176C142.578 15.056 142.818 16.144 142.866 17.44L141.858 16.504V7.48H145.722V25H142.674V19.552H143.202C143.154 20.8 142.89 21.864 142.41 22.744C141.946 23.624 141.314 24.296 140.514 24.76C139.714 25.208 138.794 25.432 137.754 25.432ZM138.714 22.216C139.306 22.216 139.842 22.088 140.322 21.832C140.818 21.56 141.21 21.168 141.498 20.656C141.802 20.144 141.954 19.528 141.954 18.808V17.92C141.954 17.216 141.802 16.624 141.498 16.144C141.194 15.664 140.794 15.296 140.298 15.04C139.802 14.784 139.266 14.656 138.69 14.656C138.05 14.656 137.474 14.824 136.962 15.16C136.466 15.48 136.074 15.928 135.786 16.504C135.498 17.064 135.354 17.72 135.354 18.472C135.354 19.24 135.498 19.904 135.786 20.464C136.074 21.024 136.474 21.456 136.986 21.76C137.498 22.064 138.074 22.216 138.714 22.216ZM157.149 25V21.112H156.501V16.888C156.501 16.216 156.341 15.712 156.021 15.376C155.701 15.04 155.189 14.872 154.485 14.872C154.133 14.872 153.669 14.88 153.093 14.896C152.517 14.912 151.925 14.936 151.317 14.968C150.709 15 150.157 15.032 149.661 15.064V11.824C150.029 11.792 150.461 11.76 150.957 11.728C151.453 11.696 151.965 11.672 152.493 11.656C153.021 11.64 153.517 11.632 153.981 11.632C155.325 11.632 156.453 11.824 157.365 12.208C158.293 12.592 158.997 13.176 159.477 13.96C159.957 14.728 160.197 15.72 160.197 16.936V25H157.149ZM152.949 25.336C152.005 25.336 151.173 25.168 150.453 24.832C149.749 24.496 149.197 24.016 148.797 23.392C148.397 22.752 148.197 21.992 148.197 21.112C148.197 20.152 148.445 19.368 148.941 18.76C149.437 18.136 150.133 17.68 151.029 17.392C151.925 17.088 152.957 16.936 154.125 16.936H156.933V19.072H154.101C153.429 19.072 152.909 19.24 152.541 19.576C152.189 19.896 152.013 20.336 152.013 20.896C152.013 21.424 152.189 21.856 152.541 22.192C152.909 22.512 153.429 22.672 154.101 22.672C154.533 22.672 154.917 22.6 155.253 22.456C155.605 22.296 155.893 22.032 156.117 21.664C156.341 21.296 156.469 20.784 156.501 20.128L157.413 21.088C157.333 22 157.109 22.768 156.741 23.392C156.389 24.016 155.893 24.496 155.253 24.832C154.629 25.168 153.861 25.336 152.949 25.336ZM171.543 25.432C170.471 25.432 169.527 25.208 168.711 24.76C167.895 24.296 167.255 23.632 166.791 22.768C166.327 21.904 166.079 20.848 166.047 19.6H166.503V25H163.455V7.48H167.295V16.384L166.383 17.536C166.431 16.208 166.679 15.096 167.127 14.2C167.591 13.288 168.223 12.608 169.023 12.16C169.823 11.696 170.735 11.464 171.759 11.464C172.655 11.464 173.463 11.632 174.183 11.968C174.919 12.288 175.543 12.752 176.055 13.36C176.567 13.952 176.959 14.656 177.231 15.472C177.519 16.288 177.663 17.176 177.663 18.136V18.664C177.663 19.624 177.519 20.512 177.231 21.328C176.959 22.144 176.551 22.864 176.007 23.488C175.479 24.096 174.839 24.576 174.087 24.928C173.335 25.264 172.487 25.432 171.543 25.432ZM170.535 22.216C171.191 22.216 171.759 22.056 172.239 21.736C172.735 21.416 173.119 20.968 173.391 20.392C173.663 19.8 173.799 19.136 173.799 18.4C173.799 17.648 173.663 16.992 173.391 16.432C173.119 15.872 172.735 15.44 172.239 15.136C171.759 14.816 171.191 14.656 170.535 14.656C169.959 14.656 169.415 14.792 168.903 15.064C168.391 15.336 167.975 15.728 167.655 16.24C167.351 16.736 167.199 17.344 167.199 18.064V18.952C167.199 19.64 167.359 20.232 167.679 20.728C168.015 21.208 168.439 21.576 168.951 21.832C169.463 22.088 169.991 22.216 170.535 22.216ZM180.498 25V7.48H184.362V25H180.498ZM178.938 10.312V7.48H184.362V10.312H178.938ZM193.924 25.456C192.804 25.456 191.812 25.264 190.948 24.88C190.1 24.496 189.388 23.984 188.812 23.344C188.252 22.688 187.82 21.96 187.516 21.16C187.228 20.344 187.084 19.512 187.084 18.664V18.184C187.084 17.304 187.228 16.464 187.516 15.664C187.82 14.848 188.252 14.12 188.812 13.48C189.372 12.84 190.068 12.336 190.9 11.968C191.748 11.584 192.708 11.392 193.78 11.392C195.188 11.392 196.372 11.712 197.332 12.352C198.308 12.976 199.052 13.8 199.564 14.824C200.076 15.832 200.332 16.936 200.332 18.136V19.432H188.692V17.248H198.004L196.756 18.256C196.756 17.472 196.644 16.8 196.42 16.24C196.196 15.68 195.86 15.256 195.412 14.968C194.98 14.664 194.436 14.512 193.78 14.512C193.108 14.512 192.54 14.664 192.076 14.968C191.612 15.272 191.26 15.72 191.02 16.312C190.78 16.888 190.66 17.6 190.66 18.448C190.66 19.232 190.772 19.92 190.996 20.512C191.22 21.088 191.572 21.536 192.052 21.856C192.532 22.176 193.156 22.336 193.924 22.336C194.628 22.336 195.204 22.2 195.652 21.928C196.1 21.656 196.404 21.32 196.564 20.92H200.092C199.9 21.8 199.524 22.584 198.964 23.272C198.404 23.96 197.7 24.496 196.852 24.88C196.004 25.264 195.028 25.456 193.924 25.456Z" fill="white"/>
</g>
<defs>
<clipPath id="clip0_2_55">
<rect width="202" height="34" fill="white"/>
</clipPath>
</defs>
</svg>
